<svg width="388" height="297" viewBox="0 0 388 297" fill="none" xmlns="http://www.w3.org/2000/svg">
<path d="M200.731 296.659C304.157 296.659 388 292.086 388 286.443C388 280.801 304.157 276.227 200.731 276.227C97.3059 276.227 13.4629 280.801 13.4629 286.443C13.4629 292.086 97.3059 296.659 200.731 296.659Z" fill="#57A0D7"/>
<path opacity="0.3" d="M200.731 296.659C304.157 296.659 388 292.086 388 286.443C388 280.801 304.157 276.227 200.731 276.227C97.3059 276.227 13.4629 280.801 13.4629 286.443C13.4629 292.086 97.3059 296.659 200.731 296.659Z" fill="white"/>
<path d="M311.402 132.455C311.346 132.455 312.053 128.937 312.128 128.682C312.94 126.173 315.996 121.796 318.949 121.805C319.44 121.819 319.922 121.936 320.365 122.149C320.807 122.362 321.2 122.665 321.518 123.04C321.836 123.414 322.071 123.852 322.208 124.323C322.346 124.795 322.383 125.29 322.316 125.776C322.099 127.861 320.232 129.625 318.543 130.653C316.562 131.889 311.402 132.455 311.402 132.455Z" fill="#57A0D7"/>
<path d="M305.676 108.768C308.459 109.768 309.846 114.919 309.751 117.56C309.751 117.787 309.223 121.333 309.176 121.333H309.119C309.336 122.145 309.572 123.022 309.808 123.975C310.223 125.748 310.676 127.748 311.025 129.974C311.429 132.362 311.694 134.772 311.817 137.191C311.967 139.898 311.876 142.613 311.544 145.303C311.538 145.335 311.538 145.366 311.544 145.398C311.912 144.615 312.996 142.445 313.1 142.285C314.553 140.077 318.647 136.625 321.505 137.455C321.974 137.599 322.406 137.84 322.776 138.163C323.145 138.485 323.442 138.882 323.649 139.326C323.855 139.771 323.966 140.254 323.973 140.744C323.981 141.234 323.886 141.721 323.694 142.171C322.939 144.115 320.675 145.332 318.779 145.869C316.638 146.482 311.864 145.756 311.487 145.699C311.085 148.428 310.498 151.125 309.732 153.774C309.292 155.321 308.814 156.868 308.299 158.415C308.629 157.746 308.94 157.151 308.987 157.067C310.44 154.859 314.534 151.407 317.392 152.227C317.862 152.37 318.295 152.611 318.665 152.933C319.036 153.255 319.334 153.652 319.54 154.097C319.747 154.542 319.857 155.025 319.864 155.516C319.871 156.007 319.774 156.493 319.581 156.944C318.826 158.897 316.562 160.104 314.666 160.651C312.77 161.198 308.657 160.651 307.582 160.51C307.384 161.095 307.185 161.689 306.978 162.274C306.035 165.104 305.016 167.934 304.148 170.707C303.837 171.65 303.563 172.669 303.29 173.65C303.591 173.056 303.846 172.556 303.893 172.49C305.337 170.283 309.44 166.83 312.289 167.651C312.757 167.795 313.19 168.036 313.56 168.359C313.929 168.681 314.227 169.077 314.434 169.521C314.641 169.966 314.753 170.449 314.762 170.939C314.771 171.429 314.677 171.916 314.487 172.367C313.732 174.31 311.459 175.527 309.563 176.065C307.667 176.603 303.959 176.131 302.676 175.952C302.422 176.971 302.176 177.98 301.978 178.971C301.856 179.65 301.695 180.301 301.61 180.989C301.526 181.678 301.422 182.348 301.327 183.008C301.195 184.3 301.044 185.64 300.95 186.904C300.875 187.781 300.818 188.621 300.761 189.46C301.054 188.517 301.705 186.574 301.752 186.413C302.799 184.34 304.358 182.567 306.28 181.263C306.385 181.026 306.514 180.802 306.667 180.593C306.934 180.181 307.285 179.83 307.697 179.563C308.108 179.296 308.572 179.118 309.056 179.042C309.541 178.965 310.037 178.992 310.511 179.119C310.985 179.247 311.427 179.472 311.808 179.782C314.053 181.668 313.487 187.026 312.459 189.46C312.402 189.602 311.562 191.083 311.025 192.007C311.43 191.517 311.808 191.064 312.232 190.517C313.053 189.517 313.902 188.536 314.808 187.479L316.194 185.979C316.647 185.461 317.194 184.979 317.694 184.48C318.873 183.338 320.128 182.234 321.42 181.15C320.533 180.433 317.449 177.82 316.562 176.046C315.675 174.273 315.043 171.792 315.968 169.924C316.17 169.475 316.464 169.074 316.832 168.747C317.2 168.42 317.632 168.174 318.101 168.025C318.571 167.877 319.066 167.829 319.555 167.884C320.044 167.94 320.515 168.098 320.939 168.349C323.439 169.915 323.694 175.244 323.043 177.782C323.043 177.942 322.326 179.725 321.939 180.697C322.722 180.055 323.496 179.404 324.307 178.81C326.646 176.999 329.071 175.244 331.476 173.48L333.674 171.848C333.363 171.594 329.627 168.575 328.627 166.594C327.75 164.83 327.108 162.34 328.033 160.463C328.236 160.015 328.531 159.615 328.899 159.289C329.267 158.962 329.699 158.717 330.168 158.568C330.637 158.42 331.131 158.371 331.62 158.426C332.109 158.481 332.58 158.638 333.004 158.887C335.504 160.463 335.759 165.792 335.108 168.32C335.061 168.518 334.089 171.084 333.806 171.726C335.419 170.518 337.013 169.311 338.523 168.056C340.589 166.369 342.543 164.547 344.371 162.604C344.23 162.491 340.315 159.359 339.296 157.321C338.409 155.557 337.777 153.067 338.702 151.199C338.903 150.751 339.197 150.35 339.563 150.023C339.93 149.696 340.362 149.45 340.83 149.301C341.299 149.152 341.793 149.104 342.282 149.16C342.77 149.215 343.241 149.373 343.664 149.624C346.173 151.19 346.428 156.519 345.777 159.057C345.73 159.217 344.994 161.179 344.617 162.104L344.767 162.189C346.557 160.185 348.164 158.026 349.569 155.736C350.352 154.491 351.041 153.256 351.682 152.029C350.89 151.52 347.314 149.199 346.192 147.426C345.069 145.652 344.22 143.369 344.928 141.407C345.08 140.946 345.327 140.521 345.653 140.16C345.979 139.799 346.376 139.51 346.82 139.311C347.264 139.112 347.744 139.008 348.231 139.005C348.717 139.002 349.198 139.101 349.644 139.294C352.314 140.577 353.144 145.85 352.776 148.463C352.776 148.605 352.399 150.029 352.125 151.067C352.399 150.51 352.701 149.944 352.956 149.407C353.899 147.388 354.701 145.483 355.361 143.747C355.738 142.803 356.05 141.86 356.304 141.077C355.785 140.134 353.767 136.502 353.569 134.474C353.371 132.446 353.691 129.955 355.229 128.54C355.58 128.196 355.999 127.93 356.459 127.759C356.92 127.588 357.411 127.515 357.901 127.546C358.392 127.577 358.87 127.711 359.305 127.94C359.74 128.168 360.122 128.485 360.427 128.871C362.2 131.238 360.512 136.295 358.983 138.455C358.851 138.634 356.446 141.285 356.418 141.285V141.228C356.153 142.03 355.87 142.888 355.531 143.813C354.908 145.52 354.172 147.454 353.248 149.473C352.263 151.686 351.151 153.84 349.918 155.925C348.544 158.261 346.966 160.471 345.201 162.528L345.135 162.604C345.871 162.142 347.965 160.944 348.145 160.868C350.578 159.83 355.88 159.236 357.823 161.472C358.134 161.851 358.363 162.292 358.493 162.765C358.624 163.238 358.653 163.734 358.58 164.219C358.508 164.704 358.334 165.169 358.07 165.583C357.806 165.997 357.459 166.351 357.05 166.622C355.342 167.83 352.776 167.566 350.899 166.99C348.777 166.321 345.239 163.085 344.909 162.83C343.069 164.882 341.093 166.808 338.994 168.594C337.768 169.65 336.513 170.669 335.221 171.669C335.872 171.301 336.457 170.971 336.542 170.933C338.966 169.896 344.267 169.301 346.211 171.537C346.524 171.916 346.753 172.356 346.884 172.83C347.016 173.303 347.046 173.799 346.973 174.285C346.9 174.771 346.725 175.236 346.461 175.65C346.196 176.064 345.847 176.417 345.437 176.688C343.739 177.895 341.173 177.631 339.296 177.056C337.419 176.48 334.278 173.763 333.466 173.037L331.985 174.178C329.608 175.999 327.269 177.801 324.958 179.64C324.156 180.291 323.392 180.961 322.618 181.621C323.203 181.291 323.684 181.018 323.769 180.989C326.193 179.942 331.495 179.357 333.438 181.584C333.752 181.962 333.983 182.402 334.115 182.876C334.247 183.349 334.278 183.846 334.205 184.332C334.132 184.818 333.957 185.284 333.691 185.698C333.426 186.112 333.076 186.465 332.665 186.734C330.957 187.941 328.401 187.677 326.524 187.111C324.646 186.545 321.807 184.074 320.864 183.215C320.1 183.923 319.326 184.621 318.619 185.347C318.137 185.847 317.675 186.291 317.204 186.828C316.732 187.366 316.26 187.847 315.845 188.357C315.024 189.356 314.166 190.394 313.383 191.394C312.836 192.083 312.327 192.752 311.817 193.422C312.6 192.771 314.185 191.536 314.326 191.432C316.562 190.036 321.713 188.649 323.977 190.555C324.342 190.884 324.635 191.286 324.835 191.735C325.035 192.185 325.138 192.671 325.138 193.163C325.138 193.655 325.035 194.141 324.835 194.59C324.635 195.04 324.342 195.442 323.977 195.771C322.477 197.214 319.911 197.375 317.968 197.073C315.817 196.733 311.93 194.243 311.449 193.884C310.6 194.998 309.789 196.092 309.034 197.139C306.421 200.752 304.384 203.855 302.988 206.053L302.846 206.27L301.035 205.393C301.129 205.251 301.224 205.119 301.318 204.968C302.78 202.78 304.912 199.686 307.629 196.092C308.487 194.96 309.421 193.762 310.393 192.536C309.382 191.435 308.437 190.276 307.563 189.064C305.478 189.875 301.148 189.913 300.592 189.913C300.507 191.309 300.431 192.668 300.375 193.95C300.186 198.412 300.205 202.129 300.252 204.723V205.035L298.262 204.091C298.262 201.516 298.365 198.016 298.63 193.894C298.714 192.469 298.837 190.951 298.979 189.404C298.422 189.262 293.922 188.102 292.224 186.743C290.687 185.517 289.064 183.517 289.121 181.433C289.116 180.941 289.214 180.454 289.41 180.003C289.607 179.552 289.896 179.147 290.259 178.816C290.623 178.485 291.052 178.234 291.519 178.08C291.986 177.926 292.48 177.873 292.97 177.923C295.903 178.301 298.356 183.036 298.846 185.63C298.846 185.781 298.997 187.517 299.054 188.555C299.12 187.913 299.167 187.3 299.233 186.668C299.365 185.376 299.535 184.083 299.714 182.697C299.818 182.036 299.931 181.367 300.035 180.687C300.139 180.008 300.318 179.31 300.46 178.612C300.818 177.008 301.252 175.395 301.733 173.782C300.601 173.66 296.592 173.188 294.866 172.207C293.139 171.226 291.253 169.49 290.998 167.424C290.918 166.939 290.941 166.441 291.066 165.965C291.192 165.489 291.416 165.045 291.725 164.662C292.034 164.279 292.421 163.966 292.86 163.743C293.299 163.52 293.78 163.392 294.271 163.368C297.224 163.292 300.375 167.603 301.243 170.094C301.299 170.254 301.724 172.113 301.931 173.141C302.233 172.197 302.516 171.198 302.874 170.235C303.818 167.405 304.884 164.632 305.921 161.83C306.242 160.972 306.544 160.113 306.865 159.264C306.459 159.264 301.676 158.765 299.752 157.661C298.045 156.718 296.139 154.944 295.875 152.878C295.798 152.393 295.823 151.897 295.95 151.422C296.076 150.947 296.301 150.504 296.61 150.122C296.918 149.74 297.304 149.426 297.741 149.202C298.178 148.978 298.658 148.849 299.148 148.822C302.11 148.746 305.261 153.057 306.129 155.548C306.195 155.736 306.799 158.378 306.921 159.104C307.601 157.217 308.27 155.331 308.808 153.444C309.606 150.897 310.236 148.301 310.695 145.671C310.506 145.671 305.506 145.2 303.544 144.068C301.827 143.124 299.922 141.351 299.667 139.285C299.59 138.8 299.615 138.304 299.742 137.829C299.868 137.354 300.093 136.911 300.402 136.529C300.71 136.146 301.096 135.833 301.533 135.609C301.97 135.385 302.45 135.255 302.941 135.229C305.893 135.163 309.044 139.464 309.912 141.955C309.968 142.124 310.43 144.162 310.629 145.133H310.798C311.188 142.476 311.339 139.79 311.251 137.106C311.251 135.625 311.11 134.219 310.968 132.842C310.025 132.842 305.742 132.842 303.856 132.031C301.969 131.219 299.96 129.729 299.469 127.701C299.338 127.226 299.309 126.728 299.384 126.241C299.459 125.754 299.635 125.288 299.902 124.874C300.17 124.46 300.521 124.107 300.934 123.838C301.347 123.57 301.812 123.391 302.299 123.314C305.233 122.918 308.836 126.852 309.978 129.238C310.034 129.371 310.525 130.757 310.855 131.767C310.789 131.153 310.723 130.512 310.638 129.927C310.346 127.71 309.931 125.692 309.553 123.918C309.327 122.909 309.11 122.032 308.893 121.154C307.95 120.683 304.252 118.739 302.978 117.164C301.705 115.589 300.592 113.334 301.092 111.306C301.199 110.822 301.408 110.367 301.705 109.971C302.002 109.574 302.379 109.245 302.813 109.005C303.246 108.765 303.725 108.62 304.219 108.579C304.713 108.539 305.209 108.603 305.676 108.768Z" fill="#57A0D7"/>
<path d="M359.144 154.359C356.832 154.265 352.21 151.897 352.21 151.888C352.21 151.878 354.691 149.322 354.87 149.18C356.936 147.529 361.898 145.567 364.36 147.199C364.762 147.483 365.099 147.848 365.35 148.271C365.602 148.693 365.762 149.164 365.819 149.652C365.877 150.141 365.832 150.636 365.686 151.105C365.54 151.575 365.298 152.008 364.973 152.378C363.653 153.963 361.115 154.435 359.144 154.359Z" fill="#57A0D7"/>
<g opacity="0.5">
<path opacity="0.5" d="M311.402 132.455C311.346 132.455 312.053 128.937 312.128 128.682C312.94 126.173 315.996 121.796 318.949 121.805C319.44 121.819 319.922 121.936 320.365 122.149C320.807 122.362 321.2 122.665 321.518 123.04C321.836 123.414 322.071 123.852 322.208 124.323C322.346 124.795 322.383 125.29 322.316 125.776C322.099 127.861 320.232 129.625 318.543 130.653C316.562 131.889 311.402 132.455 311.402 132.455Z" fill="white"/>
<path opacity="0.5" d="M305.676 108.768C308.459 109.768 309.846 114.919 309.751 117.56C309.751 117.787 309.223 121.333 309.176 121.333H309.119C309.336 122.145 309.572 123.022 309.808 123.975C310.223 125.748 310.676 127.748 311.025 129.974C311.429 132.362 311.694 134.772 311.817 137.191C311.967 139.898 311.876 142.613 311.544 145.303C311.538 145.335 311.538 145.366 311.544 145.398C311.912 144.615 312.996 142.445 313.1 142.285C314.553 140.077 318.647 136.625 321.505 137.455C321.974 137.599 322.406 137.84 322.776 138.163C323.145 138.485 323.442 138.882 323.649 139.326C323.855 139.771 323.966 140.254 323.973 140.744C323.981 141.234 323.886 141.721 323.694 142.171C322.939 144.115 320.675 145.332 318.779 145.869C316.638 146.482 311.864 145.756 311.487 145.699C311.085 148.428 310.498 151.125 309.732 153.774C309.292 155.321 308.814 156.868 308.299 158.415C308.629 157.746 308.94 157.151 308.987 157.067C310.44 154.859 314.534 151.407 317.392 152.227C317.862 152.37 318.295 152.611 318.665 152.933C319.036 153.255 319.334 153.652 319.54 154.097C319.747 154.542 319.857 155.025 319.864 155.516C319.871 156.007 319.774 156.493 319.581 156.944C318.826 158.897 316.562 160.104 314.666 160.651C312.77 161.198 308.657 160.651 307.582 160.51C307.384 161.095 307.185 161.689 306.978 162.274C306.035 165.104 305.016 167.934 304.148 170.707C303.837 171.65 303.563 172.669 303.29 173.65C303.591 173.056 303.846 172.556 303.893 172.49C305.337 170.283 309.44 166.83 312.289 167.651C312.757 167.795 313.19 168.036 313.56 168.359C313.929 168.681 314.227 169.077 314.434 169.521C314.641 169.966 314.753 170.449 314.762 170.939C314.771 171.429 314.677 171.916 314.487 172.367C313.732 174.31 311.459 175.527 309.563 176.065C307.667 176.603 303.959 176.131 302.676 175.952C302.422 176.971 302.176 177.98 301.978 178.971C301.856 179.65 301.695 180.301 301.61 180.989C301.526 181.678 301.422 182.348 301.327 183.008C301.195 184.3 301.044 185.64 300.95 186.904C300.875 187.781 300.818 188.621 300.761 189.46C301.054 188.517 301.705 186.574 301.752 186.413C302.799 184.34 304.358 182.567 306.28 181.263C306.385 181.026 306.514 180.802 306.667 180.593C306.934 180.181 307.285 179.83 307.697 179.563C308.108 179.296 308.572 179.118 309.056 179.042C309.541 178.965 310.037 178.992 310.511 179.119C310.985 179.247 311.427 179.472 311.808 179.782C314.053 181.668 313.487 187.026 312.459 189.46C312.402 189.602 311.562 191.083 311.025 192.007C311.43 191.517 311.808 191.064 312.232 190.517C313.053 189.517 313.902 188.536 314.808 187.479L316.194 185.979C316.647 185.461 317.194 184.979 317.694 184.48C318.873 183.338 320.128 182.234 321.42 181.15C320.533 180.433 317.449 177.82 316.562 176.046C315.675 174.273 315.043 171.792 315.968 169.924C316.17 169.475 316.464 169.074 316.832 168.747C317.2 168.42 317.632 168.174 318.101 168.025C318.571 167.877 319.066 167.829 319.555 167.884C320.044 167.94 320.515 168.098 320.939 168.349C323.439 169.915 323.694 175.244 323.043 177.782C323.043 177.942 322.326 179.725 321.939 180.697C322.722 180.055 323.496 179.404 324.307 178.81C326.646 176.999 329.071 175.244 331.476 173.48L333.674 171.848C333.363 171.594 329.627 168.575 328.627 166.594C327.75 164.83 327.108 162.34 328.033 160.463C328.236 160.015 328.531 159.615 328.899 159.289C329.267 158.962 329.699 158.717 330.168 158.568C330.637 158.42 331.131 158.371 331.62 158.426C332.109 158.481 332.58 158.638 333.004 158.887C335.504 160.463 335.759 165.792 335.108 168.32C335.061 168.518 334.089 171.084 333.806 171.726C335.419 170.518 337.013 169.311 338.523 168.056C340.589 166.369 342.543 164.547 344.371 162.604C344.23 162.491 340.315 159.359 339.296 157.321C338.409 155.557 337.777 153.067 338.702 151.199C338.903 150.751 339.197 150.35 339.563 150.023C339.93 149.696 340.362 149.45 340.83 149.301C341.299 149.152 341.793 149.104 342.282 149.16C342.77 149.215 343.241 149.373 343.664 149.624C346.173 151.19 346.428 156.519 345.777 159.057C345.73 159.217 344.994 161.179 344.617 162.104L344.767 162.189C346.557 160.185 348.164 158.026 349.569 155.736C350.352 154.491 351.041 153.256 351.682 152.029C350.89 151.52 347.314 149.199 346.192 147.426C345.069 145.652 344.22 143.369 344.928 141.407C345.08 140.946 345.327 140.521 345.653 140.16C345.979 139.799 346.376 139.51 346.82 139.311C347.264 139.112 347.744 139.008 348.231 139.005C348.717 139.002 349.198 139.101 349.644 139.294C352.314 140.577 353.144 145.85 352.776 148.463C352.776 148.605 352.399 150.029 352.125 151.067C352.399 150.51 352.701 149.944 352.956 149.407C353.899 147.388 354.701 145.483 355.361 143.747C355.738 142.803 356.05 141.86 356.304 141.077C355.785 140.134 353.767 136.502 353.569 134.474C353.371 132.446 353.691 129.955 355.229 128.54C355.58 128.196 355.999 127.93 356.459 127.759C356.92 127.588 357.411 127.515 357.901 127.546C358.392 127.577 358.87 127.711 359.305 127.94C359.74 128.168 360.122 128.485 360.427 128.871C362.2 131.238 360.512 136.295 358.983 138.455C358.851 138.634 356.446 141.285 356.418 141.285V141.228C356.153 142.03 355.87 142.888 355.531 143.813C354.908 145.52 354.172 147.454 353.248 149.473C352.263 151.686 351.151 153.84 349.918 155.925C348.544 158.261 346.966 160.471 345.201 162.528L345.135 162.604C345.871 162.142 347.965 160.944 348.145 160.868C350.578 159.83 355.88 159.236 357.823 161.472C358.134 161.851 358.363 162.292 358.493 162.765C358.624 163.238 358.653 163.734 358.58 164.219C358.508 164.704 358.334 165.169 358.07 165.583C357.806 165.997 357.459 166.351 357.05 166.622C355.342 167.83 352.776 167.566 350.899 166.99C348.777 166.321 345.239 163.085 344.909 162.83C343.069 164.882 341.093 166.808 338.994 168.594C337.768 169.65 336.513 170.669 335.221 171.669C335.872 171.301 336.457 170.971 336.542 170.933C338.966 169.896 344.267 169.301 346.211 171.537C346.524 171.916 346.753 172.356 346.884 172.83C347.016 173.303 347.046 173.799 346.973 174.285C346.9 174.771 346.725 175.236 346.461 175.65C346.196 176.064 345.847 176.417 345.437 176.688C343.739 177.895 341.173 177.631 339.296 177.056C337.419 176.48 334.278 173.763 333.466 173.037L331.985 174.178C329.608 175.999 327.269 177.801 324.958 179.64C324.156 180.291 323.392 180.961 322.618 181.621C323.203 181.291 323.684 181.018 323.769 180.989C326.193 179.942 331.495 179.357 333.438 181.584C333.752 181.962 333.983 182.402 334.115 182.876C334.247 183.349 334.278 183.846 334.205 184.332C334.132 184.818 333.957 185.284 333.691 185.698C333.426 186.112 333.076 186.465 332.665 186.734C330.957 187.941 328.401 187.677 326.524 187.111C324.646 186.545 321.807 184.074 320.864 183.215C320.1 183.923 319.326 184.621 318.619 185.347C318.137 185.847 317.675 186.291 317.204 186.828C316.732 187.366 316.26 187.847 315.845 188.357C315.024 189.356 314.166 190.394 313.383 191.394C312.836 192.083 312.327 192.752 311.817 193.422C312.6 192.771 314.185 191.536 314.326 191.432C316.562 190.036 321.713 188.649 323.977 190.555C324.342 190.884 324.635 191.286 324.835 191.735C325.035 192.185 325.138 192.671 325.138 193.163C325.138 193.655 325.035 194.141 324.835 194.59C324.635 195.04 324.342 195.442 323.977 195.771C322.477 197.214 319.911 197.375 317.968 197.073C315.817 196.733 311.93 194.243 311.449 193.884C310.6 194.998 309.789 196.092 309.034 197.139C306.421 200.752 304.384 203.855 302.988 206.053L302.846 206.27L301.035 205.393C301.129 205.251 301.224 205.119 301.318 204.968C302.78 202.78 304.912 199.686 307.629 196.092C308.487 194.96 309.421 193.762 310.393 192.536C309.382 191.435 308.437 190.276 307.563 189.064C305.478 189.875 301.148 189.913 300.592 189.913C300.507 191.309 300.431 192.668 300.375 193.95C300.186 198.412 300.205 202.129 300.252 204.723V205.035L298.262 204.091C298.262 201.516 298.365 198.016 298.63 193.894C298.714 192.469 298.837 190.951 298.979 189.404C298.422 189.262 293.922 188.102 292.224 186.743C290.687 185.517 289.064 183.517 289.121 181.433C289.116 180.941 289.214 180.454 289.41 180.003C289.607 179.552 289.896 179.147 290.259 178.816C290.623 178.485 291.052 178.234 291.519 178.08C291.986 177.926 292.48 177.873 292.97 177.923C295.903 178.301 298.356 183.036 298.846 185.63C298.846 185.781 298.997 187.517 299.054 188.555C299.12 187.913 299.167 187.3 299.233 186.668C299.365 185.376 299.535 184.083 299.714 182.697C299.818 182.036 299.931 181.367 300.035 180.687C300.139 180.008 300.318 179.31 300.46 178.612C300.818 177.008 301.252 175.395 301.733 173.782C300.601 173.66 296.592 173.188 294.866 172.207C293.139 171.226 291.253 169.49 290.998 167.424C290.918 166.939 290.941 166.441 291.066 165.965C291.192 165.489 291.416 165.045 291.725 164.662C292.034 164.279 292.421 163.966 292.86 163.743C293.299 163.52 293.78 163.392 294.271 163.368C297.224 163.292 300.375 167.603 301.243 170.094C301.299 170.254 301.724 172.113 301.931 173.141C302.233 172.197 302.516 171.198 302.874 170.235C303.818 167.405 304.884 164.632 305.921 161.83C306.242 160.972 306.544 160.113 306.865 159.264C306.459 159.264 301.676 158.765 299.752 157.661C298.045 156.718 296.139 154.944 295.875 152.878C295.798 152.393 295.823 151.897 295.95 151.422C296.076 150.947 296.301 150.504 296.61 150.122C296.918 149.74 297.304 149.426 297.741 149.202C298.178 148.978 298.658 148.849 299.148 148.822C302.11 148.746 305.261 153.057 306.129 155.548C306.195 155.736 306.799 158.378 306.921 159.104C307.601 157.217 308.27 155.331 308.808 153.444C309.606 150.897 310.236 148.301 310.695 145.671C310.506 145.671 305.506 145.2 303.544 144.068C301.827 143.124 299.922 141.351 299.667 139.285C299.59 138.8 299.615 138.304 299.742 137.829C299.868 137.354 300.093 136.911 300.402 136.529C300.71 136.146 301.096 135.833 301.533 135.609C301.97 135.385 302.45 135.255 302.941 135.229C305.893 135.163 309.044 139.464 309.912 141.955C309.968 142.124 310.43 144.162 310.629 145.133H310.798C311.188 142.476 311.339 139.79 311.251 137.106C311.251 135.625 311.11 134.219 310.968 132.842C310.025 132.842 305.742 132.842 303.856 132.031C301.969 131.219 299.96 129.729 299.469 127.701C299.338 127.226 299.309 126.728 299.384 126.241C299.459 125.754 299.635 125.288 299.902 124.874C300.17 124.46 300.521 124.107 300.934 123.838C301.347 123.57 301.812 123.391 302.299 123.314C305.233 122.918 308.836 126.852 309.978 129.238C310.034 129.371 310.525 130.757 310.855 131.767C310.789 131.153 310.723 130.512 310.638 129.927C310.346 127.71 309.931 125.692 309.553 123.918C309.327 122.909 309.11 122.032 308.893 121.154C307.95 120.683 304.252 118.739 302.978 117.164C301.705 115.589 300.592 113.334 301.092 111.306C301.199 110.822 301.408 110.367 301.705 109.971C302.002 109.574 302.379 109.245 302.813 109.005C303.246 108.765 303.725 108.62 304.219 108.579C304.713 108.539 305.209 108.603 305.676 108.768Z" fill="white"/>
<path opacity="0.5" d="M359.144 154.359C356.833 154.265 352.21 151.897 352.21 151.888C352.21 151.878 354.691 149.322 354.871 149.18C356.936 147.529 361.898 145.567 364.36 147.199C364.762 147.483 365.099 147.848 365.351 148.271C365.602 148.693 365.762 149.164 365.82 149.652C365.878 150.141 365.832 150.636 365.686 151.105C365.541 151.575 365.298 152.008 364.974 152.378C363.653 153.963 361.115 154.435 359.144 154.359Z" fill="white"/>
</g>
<path d="M332.155 212.241C332.155 212.241 318.128 178.423 310.28 179.895C302.431 181.367 323.722 233.796 323.722 233.796C323.722 233.796 299.045 187.243 282.216 187.243C265.387 187.243 288.385 238.702 309.695 255.851C309.695 255.851 276.046 219.59 256.416 227.429C236.785 235.268 295.677 272.02 295.677 272.02C295.677 272.02 261.463 261.238 265.387 269.567C269.311 277.897 279.971 279.368 279.971 279.368L241.294 281.33H375.907L345.617 278.387C345.617 278.387 377.029 262.709 368.615 256.342C360.2 249.974 341.692 263.69 341.692 263.69C341.692 263.69 373.662 228.41 367.492 215.175C361.323 201.94 333.834 239.192 333.834 239.192C333.834 239.192 356.276 191.658 351.758 183.329C347.239 174.999 332.155 212.241 332.155 212.241Z" fill="#57A0D7"/>
<path opacity="0.4" d="M332.155 212.241C332.155 212.241 318.128 178.423 310.28 179.895C302.431 181.367 323.722 233.796 323.722 233.796C323.722 233.796 299.045 187.243 282.216 187.243C265.387 187.243 288.385 238.702 309.695 255.851C309.695 255.851 276.046 219.59 256.416 227.429C236.785 235.268 295.677 272.02 295.677 272.02C295.677 272.02 261.463 261.238 265.387 269.567C269.311 277.897 279.971 279.368 279.971 279.368L241.294 281.33H375.907L345.617 278.387C345.617 278.387 377.029 262.709 368.615 256.342C360.2 249.974 341.692 263.69 341.692 263.69C341.692 263.69 373.662 228.41 367.492 215.175C361.323 201.94 333.834 239.192 333.834 239.192C333.834 239.192 356.276 191.658 351.758 183.329C347.239 174.999 332.155 212.241 332.155 212.241Z" fill="white"/>
<path d="M336.645 214.015C324.297 250.474 324.297 276.274 324.297 276.274C324.297 276.274 338.881 276.831 354.031 265.615" stroke="#263238" stroke-linecap="round" stroke-linejoin="round"/>
<path d="M330.476 233.655C327.929 222.753 324.552 212.062 320.373 201.676" stroke="#263238" stroke-linecap="round" stroke-linejoin="round"/>
<path d="M294.017 212.336L325.42 258.889C325.42 258.889 346.739 240.966 354.031 230.844" stroke="#263238" stroke-linecap="round" stroke-linejoin="round"/>
<path d="M324.863 270.114C324.863 270.114 291.772 254.408 278.31 245.465" stroke="#263238" stroke-linecap="round" stroke-linejoin="round"/>
<path d="M295.158 19.0677H194.373C190.247 19.0677 186.902 22.4127 186.902 26.5389V273.859C186.902 277.986 190.247 281.33 194.373 281.33H295.158C299.284 281.33 302.629 277.986 302.629 273.859V26.5389C302.629 22.4127 299.284 19.0677 295.158 19.0677Z" fill="white" stroke="#263238" stroke-linecap="round" stroke-linejoin="round"/>
<path d="M298.761 64.9793C298.354 64.9793 297.963 64.8173 297.674 64.5289C297.386 64.2405 297.224 63.8494 297.224 63.4416V42.83C297.254 42.4418 297.43 42.0793 297.716 41.8149C298.002 41.5505 298.377 41.4037 298.766 41.4037C299.156 41.4037 299.531 41.5505 299.817 41.8149C300.102 42.0793 300.278 42.4418 300.309 42.83V63.4039C300.312 63.6094 300.275 63.8136 300.199 64.0046C300.123 64.1956 300.01 64.3695 299.866 64.5162C299.722 64.6628 299.55 64.7793 299.36 64.8588C299.171 64.9384 298.967 64.9793 298.761 64.9793Z" fill="#263238"/>
<path d="M298.761 84.0721C298.354 84.0721 297.963 83.9101 297.674 83.6218C297.386 83.3334 297.224 82.9423 297.224 82.5345V71.0166C297.254 70.6283 297.43 70.2658 297.716 70.0014C298.002 69.7371 298.377 69.5902 298.766 69.5902C299.156 69.5902 299.531 69.7371 299.817 70.0014C300.102 70.2658 300.278 70.6283 300.309 71.0166V82.5345C300.306 82.9432 300.142 83.3343 299.852 83.6224C299.562 83.9105 299.17 84.0722 298.761 84.0721V84.0721Z" fill="#263238"/>
<path d="M286.432 19.0677H185.648C181.521 19.0677 178.177 22.4127 178.177 26.5389V273.859C178.177 277.986 181.521 281.33 185.648 281.33H286.432C290.558 281.33 293.903 277.986 293.903 273.859V26.5389C293.903 22.4127 290.558 19.0677 286.432 19.0677Z" fill="#263238" stroke="#263238" stroke-linecap="round" stroke-linejoin="round"/>
<path d="M286.197 36.5287H185.884V261.474H286.197V36.5287Z" fill="#57A0D7"/>
<path d="M221.145 29.3406H247.851" stroke="white" stroke-width="3" stroke-linecap="round" stroke-linejoin="round"/>
<path d="M232.446 269.435C232.446 271.275 231.295 272.765 229.871 272.765C228.446 272.765 227.305 271.275 227.305 269.435C227.305 267.596 228.456 266.096 229.871 266.096C231.286 266.096 232.446 267.586 232.446 269.435Z" fill="white"/>
<path d="M236.04 92.5054C245.647 92.5054 253.435 83.4251 253.435 72.224C253.435 61.0228 245.647 51.9425 236.04 51.9425C226.433 51.9425 218.645 61.0228 218.645 72.224C218.645 83.4251 226.433 92.5054 236.04 92.5054Z" fill="white"/>
<path d="M236.04 71.9693C239.687 71.9693 242.643 68.5188 242.643 64.2624C242.643 60.0059 239.687 56.5554 236.04 56.5554C232.393 56.5554 229.437 60.0059 229.437 64.2624C229.437 68.5188 232.393 71.9693 236.04 71.9693Z" fill="#263238" stroke="#263238" stroke-linecap="round" stroke-linejoin="round"/>
<path d="M236.04 74.0164C229.437 74.0164 224.031 79.082 224.031 85.3362C224.037 85.9183 224.09 86.4988 224.192 87.0719C225.657 88.7814 227.474 90.1537 229.519 91.0946C231.564 92.0354 233.789 92.5226 236.04 92.5226C238.291 92.5226 240.516 92.0354 242.561 91.0946C244.606 90.1537 246.423 88.7814 247.888 87.0719C247.982 86.498 248.032 85.9178 248.039 85.3362C248.039 79.082 242.662 74.0164 236.04 74.0164Z" fill="#263238" stroke="#263238" stroke-linecap="round" stroke-linejoin="round"/>
<path d="M257.189 160.566H214.891C213.771 160.522 212.715 160.035 211.955 159.213C211.194 158.39 210.791 157.299 210.834 156.18V130.069C210.834 115.023 222.154 102.778 236.04 102.778C249.926 102.778 261.236 115.041 261.236 130.069V156.161C261.26 156.716 261.175 157.27 260.984 157.792C260.794 158.314 260.502 158.794 260.126 159.203C259.75 159.612 259.298 159.943 258.794 160.177C258.29 160.411 257.745 160.543 257.189 160.566V160.566ZM218.938 151.793H253.133V130.097C253.133 119.89 245.464 111.579 236.04 111.579C226.616 111.579 218.938 119.89 218.938 130.097V151.793Z" fill="#263238"/>
<path d="M265.406 142.747H206.674V198.309H265.406V142.747Z" fill="white"/>
<path d="M244.596 180.999L240.238 170.518C241.202 169.79 241.981 168.845 242.513 167.761C243.046 166.676 243.317 165.482 243.304 164.274C243.304 160.095 240.181 156.727 236.323 156.727C232.465 156.727 229.352 160.104 229.352 164.274C229.337 165.481 229.606 166.675 230.137 167.76C230.668 168.844 231.446 169.789 232.408 170.518L228.06 180.999H244.596Z" fill="#263238" stroke="#263238" stroke-linecap="round" stroke-linejoin="round"/>
<path d="M218.145 248.239C218.236 248.305 218.344 248.341 218.457 248.342C218.537 248.342 218.616 248.322 218.686 248.284C218.757 248.247 218.817 248.192 218.862 248.125L286.197 156.538V154.802L218.07 247.522C218.028 247.574 217.996 247.634 217.977 247.698C217.958 247.762 217.952 247.829 217.959 247.896C217.966 247.962 217.986 248.027 218.018 248.086C218.05 248.145 218.093 248.197 218.145 248.239V248.239Z" fill="white"/>
<path d="M272.65 69.5261C272.61 69.5804 272.581 69.6422 272.565 69.7078C272.549 69.7734 272.546 69.8416 272.557 69.9083C272.568 69.975 272.591 70.0389 272.627 70.0964C272.662 70.1539 272.709 70.2037 272.764 70.243C272.874 70.3217 273.011 70.3538 273.145 70.3327C273.279 70.3115 273.4 70.2387 273.481 70.1298L286.197 52.8387V51.1407L272.65 69.5261Z" fill="white"/>
<path d="M185.884 189.3L269.009 76.2614C269.089 76.1513 269.122 76.0139 269.101 75.8795C269.08 75.745 269.006 75.6245 268.896 75.5444C268.786 75.4644 268.649 75.4313 268.514 75.4526C268.38 75.4738 268.259 75.5476 268.179 75.6577L185.921 187.564L185.884 189.3Z" fill="white"/>
<path d="M210.334 259.389C210.415 259.387 210.494 259.368 210.566 259.332C210.637 259.296 210.7 259.245 210.75 259.181L215.466 252.804C215.506 252.75 215.535 252.688 215.551 252.623C215.567 252.557 215.57 252.489 215.56 252.422C215.549 252.355 215.525 252.292 215.49 252.234C215.454 252.177 215.408 252.127 215.353 252.087C215.242 252.009 215.105 251.977 214.971 251.998C214.837 252.019 214.717 252.092 214.636 252.201L209.919 258.568C209.879 258.622 209.849 258.683 209.832 258.748C209.816 258.814 209.812 258.882 209.822 258.948C209.831 259.015 209.854 259.079 209.889 259.137C209.923 259.195 209.969 259.245 210.023 259.285C210.112 259.355 210.222 259.392 210.334 259.389V259.389Z" fill="white"/>
<path d="M286.196 174.876L230.918 250.069C230.862 250.145 230.828 250.235 230.82 250.33C230.813 250.424 230.831 250.518 230.874 250.603C230.918 250.687 230.983 250.757 231.064 250.806C231.145 250.855 231.238 250.881 231.333 250.88C231.414 250.882 231.494 250.863 231.566 250.827C231.638 250.791 231.701 250.738 231.748 250.672L286.196 176.603V174.876Z" fill="white"/>
<path d="M92.0512 69.196C92.9866 67.1235 93.4382 64.8655 93.3719 62.5927C93.3719 58.376 88.2685 55.9328 82.269 55.2631C76.2694 54.5933 73.6093 57.0365 74.496 58.593C75.4175 59.8767 76.5422 61.0014 77.8259 61.9229C77.8259 61.9229 71.8264 58.593 67.8267 61.2626C63.827 63.9322 69.6096 62.8191 68.4965 65.4793C67.3833 68.1394 61.1668 67.0358 59.6103 74.139C58.0539 81.2422 62.4969 88.3549 58.4972 91.4678C54.4975 94.5808 42.4607 90.3547 38.9516 98.1277C35.4424 105.901 40.4231 109.353 31.9898 114.24C23.5565 119.126 17.4061 123.899 19.8493 135.889C22.2925 147.879 30.2919 152.076 46.0642 147.841C61.8366 143.605 60.7235 134.068 65.874 124.258C71.0246 114.447 78.9862 116.485 81.4294 110.929C83.8726 105.372 80.7596 98.7125 80.986 93.5997C81.2124 88.4869 86.3158 87.3832 88.3157 81.3365C90.3155 75.2898 92.0512 69.196 92.0512 69.196Z" fill="#263238" stroke="#263238" stroke-linecap="round" stroke-linejoin="round"/>
<path d="M21.6887 135.662C21.2751 136.498 21.0649 137.419 21.0756 138.351" stroke="white" stroke-width="0.5" stroke-linecap="round" stroke-linejoin="round"/>
<path d="M83.5236 64.7906C83.5236 64.7906 80.7502 61.5833 86.0894 63.0737C92.8153 64.9604 84.9197 72.7428 81.8822 74.3087C75.7883 77.4311 67.7323 76.4312 63.0157 82.11C58.733 87.2417 64.5156 92.5903 61.9498 96.6561C59.3839 100.722 49.1111 98.3635 45.6963 103.259C42.2815 108.155 51.8939 118.664 42.0551 124.437C34.9424 128.616 27.1506 130.219 23.3867 133.531" stroke="white" stroke-width="0.5" stroke-linecap="round" stroke-linejoin="round"/>
<path d="M67.5719 83.7703C66.9889 85.1344 66.812 86.6379 67.0625 88.1001C67.9115 91.7319 72.8356 98.5804 68.3454 102.429C63.8552 106.278 56.1482 106.061 54.8747 110.57C53.6013 115.079 56.1577 127.465 51.8844 133.21C47.6112 138.955 39.2627 138.558 34.7725 142.407C30.2823 146.256 30.9238 148.397 30.9238 148.397" stroke="white" stroke-width="0.5" stroke-linecap="round" stroke-linejoin="round"/>
<path d="M69.8359 79.5442C69.4471 80.0937 69.0881 80.6636 68.7605 81.2516" stroke="white" stroke-width="0.5" stroke-linecap="round" stroke-linejoin="round"/>
<path d="M94.9282 135.323L96.0131 143.813C96.0131 143.813 101.673 149.473 105.833 152.972C109.993 156.472 120.653 163.877 120.653 163.877L115.247 165.415C115.247 165.415 97.579 154.944 94.0887 154.095C90.5984 153.246 87.9854 148.209 86.9006 146.68C85.8157 145.152 92.0888 133.795 94.9282 135.323Z" fill="white" stroke="#263238" stroke-linecap="round" stroke-linejoin="round"/>
<path d="M105.72 273.454C105.72 273.454 111.059 277.963 113.266 279.472C115.474 280.981 118.049 281.661 117.643 282.481C117.238 283.302 116.134 284.123 110.936 283.425C105.739 282.727 104.239 280.963 103.277 280.689C102.314 280.415 99.9939 281.104 98.2205 280.01C96.447 278.916 99.2581 272.397 99.2581 272.397C100.037 273.308 101.113 273.914 102.296 274.107C103.478 274.3 104.691 274.069 105.72 273.454Z" fill="white" stroke="#263238" stroke-linecap="round" stroke-linejoin="round"/>
<path d="M117.625 282.481C117.629 282.437 117.629 282.393 117.625 282.349C114.624 282.625 111.598 282.34 108.701 281.51C105.343 280.717 104.352 278.934 101.154 278.934C99.8993 278.946 98.6517 278.742 97.4658 278.331C97.4315 278.645 97.4745 278.964 97.5913 279.258C97.708 279.552 97.8948 279.814 98.1356 280.019C99.909 281.114 102.239 280.425 103.192 280.698C104.145 280.972 105.654 282.755 110.852 283.434C116.049 284.113 117.21 283.302 117.625 282.481Z" fill="white" stroke="#263238" stroke-linecap="round" stroke-linejoin="round"/>
<path d="M77.7692 91.1376C77.7692 91.1376 78.7975 98.0616 77.4768 100.854C76.1562 103.646 72.0244 103.948 68.4964 104.542C64.9684 105.136 56.8652 108.221 57.7425 116.173C58.6198 124.126 68.7888 141.351 68.7888 146.209C68.7888 151.067 65.6947 153.567 62.3082 162.991C58.9216 172.414 59.365 189.941 60.4215 201.28C61.1959 208.763 62.674 216.157 64.8363 223.363C64.8363 223.363 56.3464 237.06 52.5731 242.947C48.7998 248.833 35.5933 274.463 35.5933 274.463C35.5933 274.463 35.5933 275.34 37.6497 275.935C39.0965 276.287 40.5933 276.386 42.0739 276.227C42.0739 276.227 67.3927 245.748 72.1093 240.598C76.8259 235.447 81.2407 226.448 81.8255 222.335C82.4104 218.222 81.684 193.035 81.684 193.035C81.684 193.035 86.9761 205.695 91.1173 212.175C93.629 216.141 95.9338 220.234 98.0224 224.439C97.4425 229.768 97.4425 235.145 98.0224 240.475C99.0506 247.833 98.1828 271.473 99.211 273.388C100.239 275.303 104.229 274.501 105.116 273.623C106.003 272.746 106.418 267.02 106.418 267.02C106.418 267.02 108.182 249.097 109.248 240.664C110.314 232.23 112.078 225.052 111.465 223.137C110.852 221.222 107.192 200.752 104.39 191.064C101.588 181.376 93.07 163.236 91.1833 158.529C89.2967 153.821 88.2307 149.539 88.5326 148.067C88.8344 146.596 94.5698 137.766 96.0791 135.408C96.9396 133.809 97.4142 132.031 97.465 130.216C97.5157 128.402 97.1413 126.6 96.3716 124.956C94.6076 121.126 96.3716 115.966 96.0791 112.881C95.7867 109.797 91.221 108.457 88.8627 107.287C86.5044 106.118 85.6177 103.457 85.6177 101.25C85.7617 99.3906 86.2111 97.5675 86.9478 95.8542C86.9478 95.8542 79.6842 91.1376 77.7692 91.1376Z" fill="white" stroke="#263238" stroke-linecap="round" stroke-linejoin="round"/>
<path d="M95.6169 122.635C94.8412 120.664 94.1952 118.644 93.6831 116.589" stroke="#263238" stroke-linecap="round" stroke-linejoin="round"/>
<path d="M76.4958 139.03C76.4958 139.03 79.156 139.615 84.4858 136.955" stroke="#263238" stroke-linecap="round" stroke-linejoin="round"/>
<path d="M104.418 190.97C101.749 181.687 93.834 164.736 91.4663 159.142C80.1464 163.387 69.5623 159.764 64.591 157.425C63.8741 158.991 63.1006 160.802 62.3082 162.991C58.9216 172.424 59.365 189.941 60.4215 201.28C61.1959 208.763 62.674 216.157 64.8363 223.363C64.8363 223.363 56.3464 237.06 52.5731 242.947C48.7998 248.833 35.5933 274.463 35.5933 274.463C35.5933 274.463 35.5933 275.34 37.6497 275.935C39.0965 276.287 40.5933 276.386 42.0739 276.227C42.0739 276.227 67.3927 245.748 72.1093 240.598C76.8259 235.447 81.2407 226.448 81.8255 222.335C82.4104 218.222 81.684 193.035 81.684 193.035C81.684 193.035 86.9761 205.695 91.1173 212.175C93.629 216.141 95.9338 220.234 98.0224 224.439C97.4425 229.768 97.4425 235.145 98.0224 240.475C99.0506 247.833 98.1828 271.473 99.211 273.388C100.239 275.303 104.229 274.501 105.116 273.623C106.003 272.746 106.418 267.02 106.418 267.02C106.418 267.02 108.182 249.097 109.248 240.664C110.314 232.23 112.078 225.052 111.465 223.137C110.852 221.222 107.22 200.686 104.418 190.97Z" fill="#263238" stroke="#263238" stroke-linecap="round" stroke-linejoin="round"/>
<path d="M162.093 181.621V179.697H163.706V164.585H162.093H146.17H144.557V179.697H146.17V181.621H144.547V185.13H150.764V183.951H157.499V185.13H163.715V181.621H162.093Z" fill="#57A0D7" stroke="#263238" stroke-linecap="round" stroke-linejoin="round"/>
<path d="M59.1763 160.066H170.262C170.707 160.066 171.134 160.243 171.449 160.558C171.764 160.873 171.941 161.3 171.941 161.745V165.122C171.941 165.568 171.764 165.995 171.449 166.31C171.134 166.625 170.707 166.802 170.262 166.802H59.1763V160.057V160.066Z" fill="#57A0D7" stroke="#263238" stroke-linecap="round" stroke-linejoin="round"/>
<path d="M138.906 159.057H132.142C131.627 159.057 131.208 159.475 131.208 159.991V166.886C131.208 167.402 131.627 167.82 132.142 167.82H138.906C139.422 167.82 139.84 167.402 139.84 166.886V159.991C139.84 159.475 139.422 159.057 138.906 159.057Z" fill="#57A0D7" stroke="#263238" stroke-linecap="round" stroke-linejoin="round"/>
<path d="M62.6518 166.275C64.2169 156.717 57.7376 147.701 48.1798 146.135C38.6221 144.57 29.6051 151.05 28.04 160.607C26.4749 170.165 32.9542 179.182 42.5119 180.747C52.0697 182.312 61.0866 175.833 62.6518 166.275Z" fill="#57A0D7" stroke="#263238" stroke-linecap="round" stroke-linejoin="round"/>
<path d="M48.9508 163.396C49.9674 162.909 50.8302 162.152 51.4443 161.206C52.0584 160.261 52.4 159.165 52.4317 158.038C52.4317 154.595 49.2621 151.803 45.3473 151.803C41.4325 151.803 38.2629 154.633 38.2629 158.038C38.2925 159.165 38.6332 160.263 39.2476 161.208C39.8619 162.154 40.7258 162.911 41.7438 163.396C40.7264 163.885 39.8633 164.644 39.2492 165.591C38.6352 166.538 38.2939 167.636 38.2629 168.764C38.2629 172.207 41.4325 174.999 45.3473 174.999C49.2621 174.999 52.4317 172.169 52.4317 168.764C52.3986 167.636 52.0565 166.539 51.4427 165.593C50.8288 164.646 49.9669 163.886 48.9508 163.396V163.396Z" fill="white" stroke="#263238" stroke-linecap="round" stroke-linejoin="round"/>
<path d="M117.191 166.953C117.191 166.953 122.681 169.273 124.379 169.273C126.077 169.273 128.039 167.566 129.011 165.5C129.982 163.434 129.954 162.453 129.378 162.943L128.162 163.887C128.162 163.887 129.105 161.821 128.039 162.066C127.301 162.312 126.688 162.837 126.331 163.528C126.331 163.528 126.209 161.698 125.237 162.585C124.594 163.167 124.021 163.823 123.53 164.538C123.53 164.538 123.407 162.226 122.794 162.83C122.181 163.434 119.879 166.726 119.879 166.726L117.191 166.953Z" fill="white" stroke="#263238" stroke-linecap="round" stroke-linejoin="round"/>
<path d="M123.53 164.519C123.53 164.519 123.162 167.443 121.341 167.934Z" fill="white"/>
<path d="M123.53 164.519C123.53 164.519 123.162 167.443 121.341 167.934" stroke="#263238" stroke-linecap="round" stroke-linejoin="round"/>
<path d="M126.331 163.547C126.331 163.547 125.388 168.169 123.898 168.905Z" fill="white"/>
<path d="M126.331 163.547C126.331 163.547 125.388 168.169 123.898 168.905" stroke="#263238" stroke-linecap="round" stroke-linejoin="round"/>
<path d="M128.162 163.906C127.675 165.592 127.021 167.226 126.209 168.783Z" fill="white"/>
<path d="M128.162 163.906C127.675 165.592 127.021 167.226 126.209 168.783" stroke="#263238" stroke-linecap="round" stroke-linejoin="round"/>
<path d="M88.5136 107.004C87.5635 106.363 86.794 105.488 86.2787 104.464C85.7634 103.44 85.5195 102.301 85.5705 101.156C85.7396 99.3256 86.2048 97.5352 86.9477 95.8542C86.9477 95.8542 79.7313 91.1376 77.8164 91.1376C77.8164 91.1376 78.8446 98.0616 77.5239 100.854C77.0911 101.722 76.3852 102.425 75.5146 102.854C77.2587 107.549 79.6222 111.991 82.5424 116.06C85.1931 119.39 86.4855 112.372 88.5136 107.004Z" fill="white" stroke="#263238" stroke-linecap="round" stroke-linejoin="round"/>
<path d="M66.2419 105.495C64.4418 105.802 62.7378 106.524 61.2644 107.603C59.791 108.682 58.5886 110.088 57.752 111.712C54.8466 117.315 42.1494 142.747 43.2343 144.266C49.4036 152.944 71.8453 159.189 74.1281 161.472C76.4103 163.859 78.9152 166.023 81.6086 167.934C83.8915 169.386 88.4477 168.764 89.2779 168.349C90.108 167.934 90.7306 166.066 89.2779 166.066C88.7229 166.073 88.1821 165.89 87.746 165.546C87.3099 165.203 87.0049 164.72 86.8818 164.179C86.6743 163.349 89.1647 165.009 90.4098 164.387C91.655 163.764 87.627 161.491 86.3819 160.453C85.1367 159.415 84.099 157.972 82.4388 157.972C80.7785 157.972 77.6561 157.972 77.6561 157.972C77.6561 157.972 70.0152 152.435 65.3929 148.312C61.7963 145.067 57.8731 142.203 53.6863 139.766L67.6946 116.721" fill="white"/>
<path d="M66.2419 105.495C64.4418 105.802 62.7378 106.524 61.2644 107.603C59.791 108.682 58.5886 110.088 57.752 111.712C54.8466 117.315 42.1494 142.747 43.2343 144.266C49.4036 152.944 71.8453 159.189 74.1281 161.472C76.4103 163.859 78.9152 166.023 81.6086 167.934C83.8915 169.386 88.4477 168.764 89.2779 168.349C90.108 167.934 90.7306 166.066 89.2779 166.066C88.7229 166.073 88.1821 165.89 87.746 165.546C87.3099 165.203 87.0049 164.72 86.8818 164.179C86.6743 163.349 89.1647 165.009 90.4098 164.387C91.655 163.764 87.627 161.491 86.3819 160.453C85.1367 159.415 84.099 157.972 82.4388 157.972C80.7785 157.972 77.6561 157.972 77.6561 157.972C77.6561 157.972 70.0152 152.435 65.3929 148.312C61.7963 145.067 57.8731 142.203 53.6863 139.766L67.6946 116.721" stroke="#263238" stroke-linecap="round" stroke-linejoin="round"/>
<path d="M86.3723 160.463C85.1271 159.425 84.0894 157.982 82.4292 157.982C80.7689 157.982 77.6465 157.982 77.6465 157.982C77.6465 157.982 70.0056 152.444 65.3833 148.322C61.7867 145.077 57.8635 142.212 53.6767 139.775L59.28 130.55C56.4154 128.816 53.1385 127.881 49.7902 127.842C46.0169 135.71 42.6304 143.483 43.1869 144.303C49.3563 152.982 71.7979 159.227 74.0808 161.51C76.363 163.897 78.8678 166.06 81.5613 167.971C83.8442 169.424 88.4004 168.802 89.2305 168.386C90.0607 167.971 90.6833 166.104 89.2305 166.104C88.6755 166.111 88.1348 165.928 87.6987 165.584C87.2626 165.241 86.9576 164.758 86.8345 164.217C86.627 163.387 89.1173 165.047 90.3625 164.424C91.6077 163.802 87.6175 161.51 86.3723 160.463Z" fill="white" stroke="#263238" stroke-linecap="round" stroke-linejoin="round"/>
<path d="M93.9662 80.9781C93.2304 79.5065 93.2304 78.3273 93.5229 76.2614C93.8153 74.1956 92.0513 69.1865 92.0513 69.1865C90.2495 72.2995 85.0424 74.1484 82.7407 74.8465C80.2031 75.62 83.9104 77.3746 83.5142 79.7234C83.118 82.0723 78.0524 83.4307 78.0524 83.4307C78.0524 83.4307 76.5713 80.3838 74.5149 80.3838C72.4584 80.3838 70.9963 85.1004 72.166 87.6002C72.4708 88.2927 73.0017 88.8612 73.6718 89.2125C74.3419 89.5638 75.1115 89.6772 75.8544 89.534C75.8544 89.534 75.7129 93.9582 78.5052 95.2788C81.4845 96.7004 84.5927 97.8344 87.7875 98.6654C89.5515 98.9578 91.3155 98.0805 92.0513 95.4298C92.6267 92.7584 93.0206 90.0512 93.2304 87.3266C94.4656 86.5184 95.6022 85.5686 96.617 84.4967C97.3245 83.4779 94.702 82.4496 93.9662 80.9781Z" fill="white" stroke="#263238" stroke-linecap="round" stroke-linejoin="round"/>
<path d="M91.0984 81.0441C91.0984 81.8553 90.8343 82.5062 90.5136 82.5062C90.1928 82.5062 89.9287 81.8553 89.9287 81.0441C89.9287 80.2328 90.1928 79.5819 90.5136 79.5819C90.8343 79.5819 91.0984 80.2328 91.0984 81.0441Z" fill="#263238"/>
<path d="M88.5608 78.6104C88.5608 78.6104 90.1267 76.8464 91.2964 77.2426" stroke="#263238" stroke-linecap="round" stroke-linejoin="round"/>
<path d="M91.2966 90.7037C90.5896 90.9169 89.8393 90.9421 89.1196 90.7766C88.4 90.6112 87.736 90.2609 87.1931 89.7604" stroke="#263238" stroke-linecap="round" stroke-linejoin="round"/>
<path d="M35.6592 274.463C35.6592 274.463 32.1406 281.519 32.2727 282.481C32.4047 283.443 39.3853 288.5 42.6492 290.273C45.9131 292.047 51.8183 292.33 51.4033 289.867C50.9882 287.405 45.3849 285.764 44.017 282.066C43.2886 280.153 42.6589 278.204 42.1304 276.227C39.8502 276.261 37.6068 275.649 35.6592 274.463V274.463Z" fill="white" stroke="#263238" stroke-linecap="round" stroke-linejoin="round"/>
<path d="M51.4223 289.905C48.9108 290.242 46.3551 289.88 44.0361 288.858C38.9705 286.66 34.0652 282.17 32.7162 280.896C32.4766 281.405 32.3236 281.95 32.2634 282.51C32.4049 283.453 39.3761 288.528 42.64 290.301C45.9039 292.075 51.7619 292.32 51.4223 289.905Z" fill="white" stroke="#263238" stroke-linecap="round" stroke-linejoin="round"/>
</svg>
